<?xml version="1.0" standalone="no"?>
<!DOCTYPE svg PUBLIC "-//W3C//DTD SVG 20010904//EN"
 "http://www.w3.org/TR/2001/REC-SVG-20010904/DTD/svg10.dtd">
<svg version="1.0" xmlns="http://www.w3.org/2000/svg"
 width="2143.000000pt" height="2143.000000pt" viewBox="0 0 2143.000000 2143.000000"
 preserveAspectRatio="xMidYMid meet">
<metadata>
Created by potrace 1.11, written by Peter Selinger 2001-2013
</metadata>
<g transform="translate(0.000000,2143.000000) scale(0.100000,-0.100000)"
fill="#000000" stroke="none">
<path d="M3120 21379 c-463 -47 -942 -237 -1318 -523 -549 -418 -913 -1030
-1018 -1716 -21 -143 -30 -486 -15 -636 104 -1039 806 -1919 1795 -2248 845
-282 1789 -110 2486 452 200 162 397 379 545 602 87 131 217 387 270 534 294
804 185 1691 -296 2396 -495 727 -1312 1155 -2189 1149 -96 -1 -213 -6 -260
-10z"/>
<path d="M9990 21379 c-682 -52 -1215 -231 -1615 -544 -103 -80 -274 -257
-353 -363 -369 -498 -576 -1166 -654 -2112 -19 -232 -19 -12682 0 -12915 60
-721 194 -1263 428 -1725 268 -531 625 -863 1154 -1073 265 -105 521 -165 920
-214 121 -15 391 -17 2674 -22 l2540 -6 418 -950 c229 -522 458 -1043 509
-1157 l91 -208 1232 0 c678 0 1235 2 1238 5 3 3 -221 524 -498 1157 -277 633
-504 1152 -504 1154 0 2 55 4 123 4 705 0 1358 163 1787 447 145 96 238 173
355 294 508 524 804 1373 865 2479 14 255 14 12294 0 12550 -55 1008 -292
1772 -719 2320 -403 518 -1059 813 -1961 880 -163 12 -7870 11 -8030 -1z
m8650 -8389 l0 -6860 -4610 0 -4610 0 0 6860 0 6860 4610 0 4610 0 0 -6860z
m-4385 -7740 c247 -64 463 -238 577 -465 40 -79 77 -207 89 -311 31 -261 -72
-547 -263 -730 -111 -108 -213 -168 -368 -220 -80 -26 -96 -28 -255 -29 -191
0 -237 9 -382 75 -195 90 -337 232 -433 431 -62 131 -82 221 -83 374 -1 235
64 415 217 599 87 103 258 216 394 261 152 49 353 55 507 15z"/>
<path d="M720 8880 l0 -6470 2673 2 2672 3 0 6465 0 6465 -2672 3 -2673 2 0
-6470z"/>
</g>
</svg>
